<svg width="268" height="259" viewBox="0 0 268 259" fill="none" xmlns="http://www.w3.org/2000/svg">
<rect width="268" height="259" fill="#E5E5E5"/>
<rect x="46" y="124" width="176" height="57" fill="black"/>
<path d="M99.7104 159H98.9994C98.9154 159 98.8464 158.979 98.7924 158.937C98.7384 158.889 98.6964 158.829 98.6664 158.757L97.1634 155.058H90.9084L89.4144 158.757C89.3904 158.823 89.3484 158.88 89.2884 158.928C89.2284 158.976 89.1564 159 89.0724 159H88.3704L93.5814 146.265H94.4994L99.7104 159ZM91.1874 154.374H96.8934L94.2924 147.939C94.2504 147.837 94.2084 147.723 94.1664 147.597C94.1244 147.465 94.0824 147.327 94.0404 147.183C93.9984 147.327 93.9564 147.465 93.9144 147.597C93.8724 147.723 93.8304 147.84 93.7884 147.948L91.1874 154.374ZM107.64 159C107.49 159 107.403 158.922 107.379 158.766L107.289 157.353C106.893 157.893 106.428 158.322 105.894 158.64C105.366 158.958 104.772 159.117 104.112 159.117C103.014 159.117 102.156 158.736 101.538 157.974C100.926 157.212 100.62 156.069 100.62 154.545C100.62 153.891 100.704 153.282 100.872 152.718C101.046 152.148 101.298 151.656 101.628 151.242C101.964 150.822 102.372 150.492 102.852 150.252C103.338 150.012 103.896 149.892 104.526 149.892C105.132 149.892 105.657 150.006 106.101 150.234C106.545 150.456 106.929 150.783 107.253 151.215V145.905H108.117V159H107.64ZM104.355 158.424C104.949 158.424 105.486 158.271 105.966 157.965C106.446 157.659 106.875 157.233 107.253 156.687V151.962C106.905 151.452 106.521 151.092 106.101 150.882C105.687 150.672 105.216 150.567 104.688 150.567C104.16 150.567 103.698 150.663 103.302 150.855C102.906 151.047 102.573 151.32 102.303 151.674C102.039 152.022 101.838 152.442 101.7 152.934C101.568 153.42 101.502 153.957 101.502 154.545C101.502 155.877 101.748 156.858 102.24 157.488C102.732 158.112 103.437 158.424 104.355 158.424ZM117.466 159C117.316 159 117.229 158.922 117.205 158.766L117.115 157.353C116.719 157.893 116.254 158.322 115.72 158.64C115.192 158.958 114.598 159.117 113.938 159.117C112.84 159.117 111.982 158.736 111.364 157.974C110.752 157.212 110.446 156.069 110.446 154.545C110.446 153.891 110.53 153.282 110.698 152.718C110.872 152.148 111.124 151.656 111.454 151.242C111.79 150.822 112.198 150.492 112.678 150.252C113.164 150.012 113.722 149.892 114.352 149.892C114.958 149.892 115.483 150.006 115.927 150.234C116.371 150.456 116.755 150.783 117.079 151.215V145.905H117.943V159H117.466ZM114.181 158.424C114.775 158.424 115.312 158.271 115.792 157.965C116.272 157.659 116.701 157.233 117.079 156.687V151.962C116.731 151.452 116.347 151.092 115.927 150.882C115.513 150.672 115.042 150.567 114.514 150.567C113.986 150.567 113.524 150.663 113.128 150.855C112.732 151.047 112.399 151.32 112.129 151.674C111.865 152.022 111.664 152.442 111.526 152.934C111.394 153.42 111.328 153.957 111.328 154.545C111.328 155.877 111.574 156.858 112.066 157.488C112.558 158.112 113.263 158.424 114.181 158.424ZM133.176 146.265V147.048H128.703V159H127.785V147.048H123.285V146.265H133.176ZM136.434 149.901C137.076 149.901 137.649 150.012 138.153 150.234C138.663 150.45 139.092 150.759 139.44 151.161C139.788 151.563 140.052 152.049 140.232 152.619C140.418 153.183 140.511 153.816 140.511 154.518C140.511 155.22 140.418 155.853 140.232 156.417C140.052 156.981 139.788 157.464 139.44 157.866C139.092 158.268 138.663 158.577 138.153 158.793C137.649 159.009 137.076 159.117 136.434 159.117C135.792 159.117 135.216 159.009 134.706 158.793C134.202 158.577 133.773 158.268 133.419 157.866C133.071 157.464 132.804 156.981 132.618 156.417C132.438 155.853 132.348 155.22 132.348 154.518C132.348 153.816 132.438 153.183 132.618 152.619C132.804 152.049 133.071 151.563 133.419 151.161C133.773 150.759 134.202 150.45 134.706 150.234C135.216 150.012 135.792 149.901 136.434 149.901ZM136.434 158.442C136.968 158.442 137.433 158.352 137.829 158.172C138.231 157.986 138.564 157.722 138.828 157.38C139.098 157.038 139.299 156.627 139.431 156.147C139.563 155.661 139.629 155.118 139.629 154.518C139.629 153.924 139.563 153.384 139.431 152.898C139.299 152.412 139.098 151.998 138.828 151.656C138.564 151.308 138.231 151.041 137.829 150.855C137.433 150.669 136.968 150.576 136.434 150.576C135.9 150.576 135.432 150.669 135.03 150.855C134.634 151.041 134.301 151.308 134.031 151.656C133.767 151.998 133.566 152.412 133.428 152.898C133.296 153.384 133.23 153.924 133.23 154.518C133.23 155.118 133.296 155.661 133.428 156.147C133.566 156.627 133.767 157.038 134.031 157.38C134.301 157.722 134.634 157.986 135.03 158.172C135.432 158.352 135.9 158.442 136.434 158.442ZM155.926 156.858C155.986 156.858 156.037 156.879 156.079 156.921L156.439 157.308C156.175 157.59 155.887 157.845 155.575 158.073C155.263 158.295 154.921 158.487 154.549 158.649C154.183 158.805 153.778 158.925 153.334 159.009C152.896 159.099 152.413 159.144 151.885 159.144C151.003 159.144 150.193 158.991 149.455 158.685C148.723 158.373 148.093 157.935 147.565 157.371C147.043 156.801 146.635 156.114 146.341 155.31C146.047 154.506 145.9 153.612 145.9 152.628C145.9 151.662 146.05 150.78 146.35 149.982C146.656 149.184 147.082 148.5 147.628 147.93C148.18 147.354 148.837 146.91 149.599 146.598C150.367 146.28 151.213 146.121 152.137 146.121C152.599 146.121 153.022 146.157 153.406 146.229C153.79 146.295 154.147 146.394 154.477 146.526C154.813 146.652 155.128 146.811 155.422 147.003C155.716 147.195 156.004 147.417 156.286 147.669L156.007 148.074C155.959 148.146 155.884 148.182 155.782 148.182C155.728 148.182 155.659 148.152 155.575 148.092C155.491 148.026 155.383 147.948 155.251 147.858C155.125 147.762 154.969 147.66 154.783 147.552C154.603 147.438 154.387 147.336 154.135 147.246C153.883 147.15 153.592 147.072 153.262 147.012C152.932 146.946 152.557 146.913 152.137 146.913C151.363 146.913 150.652 147.048 150.004 147.318C149.356 147.582 148.798 147.963 148.33 148.461C147.862 148.953 147.496 149.553 147.232 150.261C146.974 150.963 146.845 151.752 146.845 152.628C146.845 153.528 146.974 154.332 147.232 155.04C147.49 155.748 147.847 156.348 148.303 156.84C148.759 157.326 149.296 157.701 149.914 157.965C150.538 158.223 151.213 158.352 151.939 158.352C152.395 158.352 152.8 158.322 153.154 158.262C153.514 158.202 153.844 158.112 154.144 157.992C154.444 157.872 154.723 157.725 154.981 157.551C155.239 157.377 155.494 157.173 155.746 156.939C155.776 156.915 155.803 156.897 155.827 156.885C155.857 156.867 155.89 156.858 155.926 156.858ZM164.613 159C164.433 159 164.322 158.916 164.28 158.748L164.154 157.605C163.908 157.845 163.662 158.061 163.416 158.253C163.176 158.445 162.924 158.607 162.66 158.739C162.396 158.871 162.111 158.97 161.805 159.036C161.499 159.108 161.163 159.144 160.797 159.144C160.491 159.144 160.194 159.099 159.906 159.009C159.618 158.919 159.363 158.781 159.141 158.595C158.919 158.409 158.739 158.172 158.601 157.884C158.469 157.59 158.403 157.239 158.403 156.831C158.403 156.453 158.511 156.102 158.727 155.778C158.943 155.454 159.279 155.172 159.735 154.932C160.197 154.692 160.788 154.5 161.508 154.356C162.234 154.212 163.104 154.128 164.118 154.104V153.168C164.118 152.34 163.938 151.704 163.578 151.26C163.224 150.81 162.696 150.585 161.994 150.585C161.562 150.585 161.193 150.645 160.887 150.765C160.587 150.885 160.332 151.017 160.122 151.161C159.912 151.305 159.741 151.437 159.609 151.557C159.477 151.677 159.366 151.737 159.276 151.737C159.156 151.737 159.066 151.683 159.006 151.575L158.853 151.314C159.321 150.846 159.813 150.492 160.329 150.252C160.845 150.012 161.43 149.892 162.084 149.892C162.564 149.892 162.984 149.97 163.344 150.126C163.704 150.276 164.001 150.495 164.235 150.783C164.475 151.065 164.655 151.41 164.775 151.818C164.895 152.22 164.955 152.67 164.955 153.168V159H164.613ZM161.013 158.523C161.361 158.523 161.679 158.487 161.967 158.415C162.261 158.337 162.531 158.232 162.777 158.1C163.029 157.962 163.263 157.8 163.479 157.614C163.695 157.428 163.908 157.227 164.118 157.011V154.68C163.266 154.704 162.531 154.77 161.913 154.878C161.301 154.98 160.794 155.121 160.392 155.301C159.996 155.481 159.702 155.697 159.51 155.949C159.324 156.195 159.231 156.477 159.231 156.795C159.231 157.095 159.279 157.356 159.375 157.578C159.477 157.794 159.609 157.974 159.771 158.118C159.933 158.256 160.122 158.358 160.338 158.424C160.554 158.49 160.779 158.523 161.013 158.523ZM167.652 159V150.045H168.102C168.204 150.045 168.276 150.066 168.318 150.108C168.366 150.15 168.393 150.222 168.399 150.324L168.471 152.214C168.759 151.488 169.143 150.921 169.623 150.513C170.103 150.099 170.694 149.892 171.396 149.892C171.666 149.892 171.915 149.922 172.143 149.982C172.371 150.036 172.587 150.117 172.791 150.225L172.674 150.819C172.656 150.915 172.596 150.963 172.494 150.963C172.458 150.963 172.407 150.951 172.341 150.927C172.275 150.903 172.191 150.876 172.089 150.846C171.993 150.816 171.873 150.789 171.729 150.765C171.585 150.741 171.42 150.729 171.234 150.729C170.556 150.729 169.998 150.939 169.56 151.359C169.128 151.779 168.777 152.385 168.507 153.177V159H167.652ZM177.255 159.144C176.649 159.144 176.175 158.976 175.833 158.64C175.497 158.304 175.329 157.785 175.329 157.083V150.963H174.042C173.976 150.963 173.922 150.945 173.88 150.909C173.838 150.873 173.817 150.822 173.817 150.756V150.423L175.347 150.315L175.563 147.111C175.569 147.057 175.59 147.009 175.626 146.967C175.668 146.925 175.722 146.904 175.788 146.904H176.193V150.324H179.01V150.963H176.193V157.038C176.193 157.284 176.223 157.497 176.283 157.677C176.349 157.851 176.436 157.995 176.544 158.109C176.658 158.223 176.79 158.307 176.94 158.361C177.09 158.415 177.252 158.442 177.426 158.442C177.642 158.442 177.828 158.412 177.984 158.352C178.14 158.286 178.275 158.217 178.389 158.145C178.503 158.067 178.596 157.998 178.668 157.938C178.74 157.872 178.797 157.839 178.839 157.839C178.887 157.839 178.935 157.869 178.983 157.929L179.217 158.307C178.989 158.559 178.698 158.763 178.344 158.919C177.996 159.069 177.633 159.144 177.255 159.144Z" fill="white"/>
<path d="M134 31C119.664 31 108 42.663 108 57C108 71.337 119.664 83 134 83C148.336 83 160 71.337 160 57C160 42.663 148.336 31 134 31ZM134 81C120.767 81 110 70.233 110 57C110 43.767 120.767 33 134 33C147.233 33 158 43.767 158 57C158 70.233 147.233 81 134 81Z" fill="black"/>
<path d="M146.252 46.336L130.883 63.626L121.624 56.219C121.194 55.874 120.563 55.945 120.219 56.375C119.874 56.807 119.944 57.436 120.375 57.781L130.375 65.781C130.559 65.928 130.78 66 131 66C131.276 66 131.551 65.886 131.748 65.664L147.748 47.664C148.115 47.252 148.078 46.619 147.665 46.253C147.251 45.885 146.62 45.922 146.252 46.336Z" fill="black"/>
<path d="M209.807 214.453C209.145 214.455 208.497 214.647 207.941 215.006C207.762 214.521 207.476 214.083 207.104 213.723C206.733 213.364 206.285 213.092 205.795 212.929C205.304 212.765 204.783 212.714 204.27 212.779C203.757 212.843 203.266 213.023 202.831 213.303C202.583 212.642 202.14 212.072 201.561 211.669C200.981 211.266 200.292 211.049 199.587 211.048C199.015 211.051 198.453 211.198 197.953 211.474V208.667C199.512 207.891 200.763 206.613 201.506 205.038C202.248 203.464 202.438 201.685 202.044 199.989C201.651 198.293 200.697 196.78 199.337 195.693C197.977 194.606 196.29 194.01 194.549 194C192.808 193.99 191.115 194.568 189.743 195.64C188.371 196.711 187.4 198.214 186.988 199.905C186.576 201.597 186.746 203.378 187.47 204.96C188.195 206.543 189.433 207.835 190.982 208.628V224.697L190.717 224.808L188.011 222.093C187.213 221.289 186.206 220.725 185.103 220.464C184.001 220.203 182.847 220.256 181.773 220.617C181.395 220.744 181.051 220.956 180.768 221.237C180.484 221.518 180.27 221.861 180.14 222.238C180.011 222.616 179.97 223.018 180.021 223.414C180.072 223.809 180.214 224.188 180.435 224.52L186.033 232.919C186.906 234.241 187.89 235.486 188.973 236.642C190.061 237.763 191.365 238.651 192.807 239.254C194.248 239.857 195.797 240.161 197.359 240.148H201.604C203.956 240.156 206.256 239.455 208.204 238.136C210.151 236.817 211.656 234.942 212.522 232.755C213.018 231.52 213.272 230.201 213.271 228.87V217.93C213.27 217.01 212.905 216.129 212.256 215.477C211.607 214.826 210.727 214.458 209.807 214.453ZM188.613 201.746C188.61 200.736 188.868 199.743 189.36 198.861C189.852 197.98 190.562 197.239 191.422 196.711C192.283 196.183 193.265 195.885 194.273 195.846C195.282 195.806 196.284 196.027 197.184 196.486C198.083 196.945 198.849 197.628 199.408 198.468C199.967 199.309 200.301 200.279 200.378 201.286C200.454 202.292 200.271 203.302 199.845 204.217C199.419 205.133 198.765 205.923 197.946 206.513V202.599C197.956 202.135 197.874 201.674 197.704 201.243C197.534 200.812 197.28 200.419 196.956 200.087C196.632 199.755 196.245 199.492 195.818 199.312C195.39 199.132 194.931 199.04 194.468 199.04C194.004 199.04 193.545 199.132 193.118 199.312C192.691 199.492 192.304 199.755 191.98 200.087C191.656 200.419 191.401 200.812 191.231 201.243C191.061 201.674 190.979 202.135 190.99 202.599V206.458C190.256 205.91 189.659 205.199 189.247 204.382C188.834 203.564 188.617 202.662 188.613 201.746ZM211.433 228.876C211.433 229.972 211.224 231.058 210.817 232.076C210.085 233.918 208.816 235.498 207.174 236.609C205.532 237.719 203.593 238.31 201.611 238.303H197.366C196.054 238.314 194.753 238.06 193.542 237.555C192.331 237.049 191.235 236.304 190.32 235.363C189.306 234.288 188.386 233.129 187.568 231.899L181.971 223.5C181.906 223.404 181.865 223.294 181.85 223.18C181.835 223.066 181.847 222.949 181.884 222.84C181.922 222.731 181.984 222.632 182.066 222.551C182.147 222.47 182.247 222.408 182.356 222.372C183.105 222.122 183.909 222.085 184.677 222.266C185.446 222.447 186.148 222.839 186.706 223.398L189.419 226.122C189.7 226.4 190.057 226.589 190.445 226.665C190.833 226.74 191.234 226.699 191.599 226.547C191.964 226.395 192.275 226.138 192.494 225.808C192.712 225.479 192.829 225.093 192.828 224.697V202.599C192.821 202.38 192.857 202.161 192.936 201.957C193.015 201.752 193.134 201.566 193.286 201.408C193.439 201.251 193.621 201.126 193.823 201.04C194.024 200.954 194.241 200.91 194.46 200.91C194.68 200.91 194.896 200.954 195.098 201.04C195.3 201.126 195.482 201.251 195.635 201.408C195.787 201.566 195.906 201.752 195.985 201.957C196.063 202.161 196.1 202.38 196.093 202.599V216.228C196.093 216.473 196.19 216.708 196.363 216.881C196.536 217.054 196.771 217.151 197.016 217.151C197.26 217.151 197.495 217.054 197.668 216.881C197.841 216.708 197.938 216.473 197.938 216.228V214.523C197.953 214.099 198.131 213.698 198.435 213.404C198.74 213.109 199.147 212.944 199.571 212.944C199.995 212.944 200.402 213.109 200.706 213.404C201.011 213.698 201.189 214.099 201.203 214.523V217.079C201.203 217.324 201.3 217.558 201.474 217.731C201.647 217.904 201.881 218.002 202.126 218.002C202.371 218.002 202.605 217.904 202.779 217.731C202.952 217.558 203.049 217.324 203.049 217.079V216.228C203.049 216.014 203.091 215.801 203.173 215.603C203.255 215.405 203.376 215.225 203.527 215.073C203.679 214.922 203.859 214.801 204.057 214.719C204.255 214.637 204.468 214.595 204.682 214.595C204.897 214.595 205.109 214.637 205.307 214.719C205.505 214.801 205.685 214.922 205.837 215.073C205.989 215.225 206.109 215.405 206.191 215.603C206.273 215.801 206.315 216.014 206.315 216.228V218.782C206.315 219.027 206.413 219.262 206.586 219.435C206.759 219.608 206.993 219.705 207.238 219.705C207.483 219.705 207.718 219.608 207.891 219.435C208.064 219.262 208.161 219.027 208.161 218.782V217.93C208.175 217.506 208.353 217.105 208.658 216.81C208.963 216.516 209.37 216.351 209.793 216.351C210.217 216.351 210.624 216.516 210.929 216.81C211.233 217.105 211.412 217.506 211.426 217.93L211.433 228.876Z" fill="black"/>
</svg>
